<?xml version="1.0" encoding="utf-8"?>
<!-- Generator: Adobe Illustrator 18.1.1, SVG Export Plug-In . SVG Version: 6.00 Build 0)  -->
<svg version="1.1" id="Layer_1" xmlns="http://www.w3.org/2000/svg" xmlns:xlink="http://www.w3.org/1999/xlink" x="0px" y="0px"
	 viewBox="0 0 2834.6 2054.3" enable-background="new 0 0 2834.6 2054.3" xml:space="preserve">
<g>
	<rect x="364.3" y="1484.5" fill="none" stroke="#010101" stroke-width="4.7655" width="900.1" height="388.7"/>
	<rect x="364.3" y="1484.5" fill="none" stroke="#010101" stroke-width="4.7655" width="900.1" height="388.7"/>
	<path fill="#FFFFFF" d="M2306,580.2c0,72.1-92.8,130.5-207.2,130.5c-114.4,0-207.2-58.5-207.2-130.5c0-72.1,92.8-130.5,207.2-130.5
		C2213.2,449.6,2306,508.1,2306,580.2z"/>
	<path fill="none" stroke="#BFBEBE" stroke-width="19.0619" d="M2306,580.2c0,72.1-92.8,130.5-207.2,130.5
		c-114.4,0-207.2-58.5-207.2-130.5c0-72.1,92.8-130.5,207.2-130.5C2213.2,449.6,2306,508.1,2306,580.2z"/>
	<path fill="#FFFFFF" d="M2212.3,479.6c-5-35.7,19-68.8,53.4-73.9c34.5-5.1,66.4,19.6,71.4,55.3c4.9,35.7-19,68.8-53.5,73.9"/>
	<path fill="none" stroke="#BFBEBE" stroke-width="19.0619" d="M2212.3,479.6c-5-35.7,19-68.8,53.4-73.9
		c34.5-5.1,66.4,19.6,71.4,55.3c4.9,35.7-19,68.8-53.5,73.9"/>
	<path fill="#ED2224" d="M2258.8,580.3c0,10.3-7.3,18.7-16.4,18.7h-284.3c-9.1,0-16.4-8.4-16.4-18.7l0,0c0-10.3,7.3-18.7,16.4-18.7
		h284.3C2251.5,561.6,2258.8,570,2258.8,580.3L2258.8,580.3z"/>
	<path fill="none" stroke="#010101" stroke-width="4.7655" d="M2258.8,580.3c0,10.3-7.3,18.7-16.4,18.7h-284.3
		c-9.1,0-16.4-8.4-16.4-18.7l0,0c0-10.3,7.3-18.7,16.4-18.7h284.3C2251.5,561.6,2258.8,570,2258.8,580.3L2258.8,580.3z"/>
	<rect x="1981.4" y="563.6" fill="#528DCA" width="180.2" height="33.4"/>
	<path fill="#FFFFFF" d="M2306,1729c0,72.1-92.8,130.6-207.2,130.6c-114.4,0-207.2-58.5-207.2-130.6s92.8-130.5,207.2-130.5
		C2213.2,1598.5,2306,1656.9,2306,1729z"/>
	<path fill="none" stroke="#BFBEBE" stroke-width="19.0619" d="M2306,1729c0,72.1-92.8,130.6-207.2,130.6
		c-114.4,0-207.2-58.5-207.2-130.6s92.8-130.5,207.2-130.5C2213.2,1598.5,2306,1656.9,2306,1729z"/>
	<path fill="#ED2224" d="M2258.8,1728.6c0,10.3-7.3,18.6-16.4,18.6h-284.3c-9.1,0-16.4-8.3-16.4-18.6l0,0c0-10.3,7.3-18.7,16.4-18.7
		h284.3C2251.5,1710,2258.8,1718.3,2258.8,1728.6L2258.8,1728.6z"/>
	<path fill="none" stroke="#010101" stroke-width="4.7655" d="M2258.8,1728.6c0,10.3-7.3,18.6-16.4,18.6h-284.3
		c-9.1,0-16.4-8.3-16.4-18.6l0,0c0-10.3,7.3-18.7,16.4-18.7h284.3C2251.5,1710,2258.8,1718.3,2258.8,1728.6L2258.8,1728.6z"/>
	<path fill="#FFFFFF" d="M2212.3,1628.5c-5-35.7,19-68.8,53.4-73.9c34.5-5.1,66.4,19.6,71.4,55.3c4.9,35.7-19,68.8-53.5,73.9"/>
	<path fill="none" stroke="#BFBEBE" stroke-width="19.0619" d="M2212.3,1628.5c-5-35.7,19-68.8,53.4-73.9
		c34.5-5.1,66.4,19.6,71.4,55.3c4.9,35.7-19,68.8-53.5,73.9"/>
	<rect x="2150.7" y="1711.9" fill="#528DCA" width="57.6" height="33.4"/>
	<rect x="1991" y="1711.9" fill="#528DCA" width="108.1" height="33.4"/>
	<path fill="#FFFFFF" d="M2306,1358.5c0,72.1-92.8,130.5-207.2,130.5c-114.4,0-207.2-58.5-207.2-130.5
		c0-72.1,92.8-130.5,207.2-130.5C2213.2,1228,2306,1286.4,2306,1358.5z"/>
	<path fill="none" stroke="#BFBEBE" stroke-width="19.0619" d="M2306,1358.5c0,72.1-92.8,130.5-207.2,130.5
		c-114.4,0-207.2-58.5-207.2-130.5c0-72.1,92.8-130.5,207.2-130.5C2213.2,1228,2306,1286.4,2306,1358.5z"/>
	<path fill="#FFFFFF" d="M2212.3,1257.9c-5-35.7,19-68.8,53.4-73.9c34.5-5.1,66.4,19.6,71.4,55.3c4.9,35.7-19,68.8-53.5,73.9"/>
	<path fill="none" stroke="#BFBEBE" stroke-width="19.0619" d="M2212.3,1257.9c-5-35.7,19-68.8,53.4-73.9
		c34.5-5.1,66.4,19.6,71.4,55.3c4.9,35.7-19,68.8-53.5,73.9"/>
	<path fill="#528DCA" d="M2258.8,1358.6c0,10.3-7.3,18.7-16.4,18.7h-284.3c-9.1,0-16.4-8.3-16.4-18.7l0,0c0-10.3,7.3-18.7,16.4-18.7
		h284.3C2251.5,1340,2258.8,1348.3,2258.8,1358.6L2258.8,1358.6z"/>
	<path fill="none" stroke="#010101" stroke-width="4.7655" d="M2258.8,1358.6c0,10.3-7.3,18.7-16.4,18.7h-284.3
		c-9.1,0-16.4-8.3-16.4-18.7l0,0c0-10.3,7.3-18.7,16.4-18.7h284.3C2251.5,1340,2258.8,1348.3,2258.8,1358.6L2258.8,1358.6z"/>
	<rect x="1995.8" y="1341.9" fill="#ED2224" width="180.2" height="33.4"/>
	<path fill="#FFFFFF" d="M2306,973.1c0,72.1-92.8,130.5-207.2,130.5c-114.4,0-207.2-58.5-207.2-130.5c0-72.1,92.8-130.6,207.2-130.6
		C2213.2,842.5,2306,901,2306,973.1z"/>
	<path fill="none" stroke="#BFBEBE" stroke-width="19.0619" d="M2306,973.1c0,72.1-92.8,130.5-207.2,130.5
		c-114.4,0-207.2-58.5-207.2-130.5c0-72.1,92.8-130.6,207.2-130.6C2213.2,842.5,2306,901,2306,973.1z"/>
	<path fill="#FFFFFF" d="M2212.3,872.5c-5-35.7,19-68.8,53.4-73.9c34.5-5.1,66.4,19.6,71.4,55.3c4.9,35.7-19,68.8-53.5,73.9"/>
	<path fill="none" stroke="#BFBEBE" stroke-width="19.0619" d="M2212.3,872.5c-5-35.7,19-68.8,53.4-73.9
		c34.5-5.1,66.4,19.6,71.4,55.3c4.9,35.7-19,68.8-53.5,73.9"/>
	<path fill="#528DCA" d="M2258.8,972.7c0,10.3-7.3,18.7-16.4,18.7h-284.3c-9.1,0-16.4-8.3-16.4-18.7l0,0c0-10.3,7.3-18.6,16.4-18.6
		h284.3C2251.5,954,2258.8,962.4,2258.8,972.7L2258.8,972.7z"/>
	<path fill="none" stroke="#010101" stroke-width="4.7655" d="M2258.8,972.7c0,10.3-7.3,18.7-16.4,18.7h-284.3
		c-9.1,0-16.4-8.3-16.4-18.7l0,0c0-10.3,7.3-18.6,16.4-18.6h284.3C2251.5,954,2258.8,962.4,2258.8,972.7L2258.8,972.7z"/>
	<rect x="2150.7" y="956" fill="#ED2224" width="57.6" height="33.4"/>
	<rect x="1991" y="956" fill="#ED2224" width="108.1" height="33.4"/>
	<path fill="#ED2224" d="M644,1795.3c0,11.4-5.2,20.7-11.6,20.7H431.8c-6.4,0-11.6-9.3-11.6-20.7l0,0c0-11.4,5.2-20.7,11.6-20.7
		h200.6C638.8,1774.6,644,1783.9,644,1795.3L644,1795.3z"/>
	<path fill="none" stroke="#010101" stroke-width="4.7655" d="M644,1795.3c0,11.4-5.2,20.7-11.6,20.7H431.8
		c-6.4,0-11.6-9.3-11.6-20.7l0,0c0-11.4,5.2-20.7,11.6-20.7h200.6C638.8,1774.6,644,1783.9,644,1795.3L644,1795.3z"/>
	<text transform="matrix(0.966 0 0 1 691.892 1704.0293)"><tspan x="0" y="0" fill="#010101" font-family="'ArialMT'" font-size="67.8814">YJM789 Ch</tspan><tspan x="354.7" y="0" fill="#010101" font-family="'ArialMT'" font-size="67.8814" letter-spacing="-3.1">r</tspan><tspan x="373.5" y="0" fill="#010101" font-family="'ArialMT'" font-size="67.8814">.</tspan></text>
	<text transform="matrix(0.966 0 0 1 691.892 1821.8789)"><tspan x="0" y="0" fill="#010101" font-family="'ArialMT'" font-size="67.8814">recombinant Ch</tspan><tspan x="479.2" y="0" fill="#010101" font-family="'ArialMT'" font-size="67.8814" letter-spacing="-3.1">r</tspan><tspan x="498.1" y="0" fill="#010101" font-family="'ArialMT'" font-size="67.8814">.</tspan></text>
	<text transform="matrix(0.966 0 0 1 691.892 1586.168)"><tspan x="0" y="0" fill="#010101" font-family="'ArialMT'" font-size="67.8814">S288c Ch</tspan><tspan x="298.1" y="0" fill="#010101" font-family="'ArialMT'" font-size="67.8814" letter-spacing="-3.1">r</tspan><tspan x="317" y="0" fill="#010101" font-family="'ArialMT'" font-size="67.8814">.</tspan></text>
	<path fill="#528DCA" d="M643.9,1680.1c0,11.4-5.2,20.7-11.6,20.7H431.8c-6.4,0-11.6-9.3-11.6-20.7l0,0c0-11.4,5.2-20.7,11.6-20.7
		h200.6C638.8,1659.4,643.9,1668.7,643.9,1680.1L643.9,1680.1z"/>
	<path fill="none" stroke="#010101" stroke-width="4.7654" d="M643.9,1680.1c0,11.4-5.2,20.7-11.6,20.7H431.8
		c-6.4,0-11.6-9.3-11.6-20.7l0,0c0-11.4,5.2-20.7,11.6-20.7h200.6C638.8,1659.4,643.9,1668.7,643.9,1680.1L643.9,1680.1z"/>
	<rect x="505.5" y="1776.8" fill="#528DCA" width="95.9" height="37"/>
	<path fill="#FFFFFF" d="M785.5,1149.7c0,72.1-92.8,130.6-207.2,130.6c-114.4,0-207.2-58.5-207.2-130.6
		c0-72.1,92.7-130.5,207.2-130.5C692.7,1019.1,785.5,1077.6,785.5,1149.7z"/>
	<path fill="none" stroke="#BFBEBE" stroke-width="19.0617" d="M785.5,1149.7c0,72.1-92.8,130.6-207.2,130.6
		c-114.4,0-207.2-58.5-207.2-130.6c0-72.1,92.7-130.5,207.2-130.5C692.7,1019.1,785.5,1077.6,785.5,1149.7z"/>
	<path fill="#FFFFFF" d="M691.8,1049.1c-5-35.7,19-68.8,53.4-73.9c34.5-5.1,66.4,19.6,71.4,55.3c4.9,35.7-19,68.8-53.5,73.9"/>
	<path fill="none" stroke="#BFBEBE" stroke-width="19.0617" d="M691.8,1049.1c-5-35.7,19-68.8,53.4-73.9
		c34.5-5.1,66.4,19.6,71.4,55.3c4.9,35.7-19,68.8-53.5,73.9"/>
	<path fill="#528DCA" d="M738.3,1174.4c0,10.3-7.3,18.7-16.4,18.7H437.6c-9.1,0-16.4-8.4-16.4-18.7l0,0c0-10.3,7.3-18.7,16.4-18.7
		h284.3C731,1155.7,738.3,1164.1,738.3,1174.4L738.3,1174.4z"/>
	<path fill="none" stroke="#010101" stroke-width="4.7654" d="M738.3,1174.4c0,10.3-7.3,18.7-16.4,18.7H437.6
		c-9.1,0-16.4-8.4-16.4-18.7l0,0c0-10.3,7.3-18.7,16.4-18.7h284.3C731,1155.7,738.3,1164.1,738.3,1174.4L738.3,1174.4z"/>
	<text transform="matrix(0.966 0 0 1 457.7466 1134.2184)" fill="#010101" font-family="'ArialMT'" font-size="67.881">YJM789</text>
	<line fill="none" stroke="#010101" stroke-width="9.5308" x1="1491.9" y1="884.6" x2="1841.6" y2="884.6"/>
	<polygon fill="#010101" points="1829.3,910.2 1821.9,902.5 1839.3,884.6 1821.9,866.6 1829.3,858.9 1854,884.6 	"/>
	<text transform="matrix(0.966 0 0 1 1507.5564 1017.0792)" fill="#010101" font-family="'ArialMT'" font-size="87.275">Meiosis</text>
	<path fill="none" stroke="#010101" stroke-width="9.5307" d="M577.1,991.7c0-67.9,152.2-122.8,340.3-122.8"/>
	<path fill="none" stroke="#010101" stroke-width="9.5307" d="M577.1,744.4c0,67.9,152.2,122.8,340.3,122.8"/>
	<polygon fill="#010101" points="905,892.9 897.6,885.2 915,867.3 897.6,849.3 905,841.6 929.8,867.3 	"/>
	<text transform="matrix(0.966 0 0 1 974.5312 595.2835)" fill="#010101" font-family="'ArialMT'" font-size="77.5772">Diploid hybrid</text>
	<text transform="matrix(0.966 0 0 1 1846.3164 197.6829)" fill="#010101" font-family="'ArialMT'" font-size="77.5772">Haploid spores</text>
	<path fill="#ED2224" d="M643.9,1564.6c0,11.4-5.2,20.7-11.6,20.7H431.8c-6.4,0-11.6-9.3-11.6-20.7l0,0c0-11.4,5.2-20.7,11.6-20.7
		h200.5C638.7,1543.9,643.9,1553.2,643.9,1564.6L643.9,1564.6z"/>
	<path fill="none" stroke="#010101" stroke-width="4.7651" d="M643.9,1564.6c0,11.4-5.2,20.7-11.6,20.7H431.8
		c-6.4,0-11.6-9.3-11.6-20.7l0,0c0-11.4,5.2-20.7,11.6-20.7h200.5C638.7,1543.9,643.9,1553.2,643.9,1564.6L643.9,1564.6z"/>
	<path fill="#FFFFFF" d="M1414.8,871.8c0,72.1-92.7,130.5-207.2,130.5c-114.4,0-207.2-58.4-207.2-130.5
		c0-72.1,92.7-130.5,207.2-130.5C1322,741.2,1414.8,799.7,1414.8,871.8z"/>
	<path fill="none" stroke="#BFBEBE" stroke-width="19.0605" d="M1414.8,871.8c0,72.1-92.7,130.5-207.2,130.5
		c-114.4,0-207.2-58.4-207.2-130.5c0-72.1,92.7-130.5,207.2-130.5C1322,741.2,1414.8,799.7,1414.8,871.8z"/>
	<path fill="#FFFFFF" d="M1321.1,771.2c-5-35.7,19-68.8,53.4-73.9c34.5-5.1,66.4,19.6,71.4,55.3c4.9,35.7-19,68.8-53.4,73.9"/>
	<path fill="none" stroke="#BFBEBE" stroke-width="19.0605" d="M1321.1,771.2c-5-35.7,19-68.8,53.4-73.9
		c34.5-5.1,66.4,19.6,71.4,55.3c4.9,35.7-19,68.8-53.4,73.9"/>
	<path fill="#528DCA" d="M1367.6,896c0,10.3-7.3,18.7-16.4,18.7h-284.3c-9.1,0-16.4-8.3-16.4-18.7l0,0c0-10.3,7.3-18.6,16.4-18.6
		h284.3C1360.3,877.4,1367.6,885.7,1367.6,896L1367.6,896z"/>
	<path fill="none" stroke="#010101" stroke-width="4.7651" d="M1367.6,896c0,10.3-7.3,18.7-16.4,18.7h-284.3
		c-9.1,0-16.4-8.3-16.4-18.7l0,0c0-10.3,7.3-18.6,16.4-18.6h284.3C1360.3,877.4,1367.6,885.7,1367.6,896L1367.6,896z"/>
	<path fill="#ED2224" d="M1367.6,838.8c0,10.3-7.3,18.7-16.4,18.7h-284.3c-9.1,0-16.4-8.4-16.4-18.7l0,0c0-10.3,7.3-18.7,16.4-18.7
		h284.3C1360.3,820.2,1367.6,828.5,1367.6,838.8L1367.6,838.8z"/>
	<path fill="none" stroke="#010101" stroke-width="4.7651" d="M1367.6,838.8c0,10.3-7.3,18.7-16.4,18.7h-284.3
		c-9.1,0-16.4-8.4-16.4-18.7l0,0c0-10.3,7.3-18.7,16.4-18.7h284.3C1360.3,820.2,1367.6,828.5,1367.6,838.8L1367.6,838.8z"/>
	<path fill="#FFFFFF" d="M785.4,580.5c0,72.1-92.7,130.5-207.2,130.5c-114.4,0-207.2-58.5-207.2-130.5
		c0-72.1,92.7-130.5,207.2-130.5C692.7,450,785.4,508.4,785.4,580.5z"/>
	<path fill="none" stroke="#BFBEBE" stroke-width="19.0605" d="M785.4,580.5c0,72.1-92.7,130.5-207.2,130.5
		c-114.4,0-207.2-58.5-207.2-130.5c0-72.1,92.7-130.5,207.2-130.5C692.7,450,785.4,508.4,785.4,580.5z"/>
	<path fill="#FFFFFF" d="M691.8,479.9c-5-35.7,19-68.8,53.4-73.9c34.5-5.1,66.4,19.6,71.4,55.3c4.9,35.7-19,68.8-53.5,73.9"/>
	<path fill="none" stroke="#BFBEBE" stroke-width="19.0605" d="M691.8,479.9c-5-35.7,19-68.8,53.4-73.9
		c34.5-5.1,66.4,19.6,71.4,55.3c4.9,35.7-19,68.8-53.5,73.9"/>
	<text transform="matrix(0.966 0 0 1 484.3516 562.5609)" fill="#010101" font-family="'ArialMT'" font-size="67.8768">S288c</text>
	<path fill="#ED2224" d="M738.2,605.2c0,10.3-7.3,18.7-16.4,18.7H437.6c-9.1,0-16.4-8.4-16.4-18.7l0,0c0-10.3,7.3-18.7,16.4-18.7
		h284.3C730.9,586.6,738.2,594.9,738.2,605.2L738.2,605.2z"/>
	<path fill="none" stroke="#010101" stroke-width="4.7651" d="M738.2,605.2c0,10.3-7.3,18.7-16.4,18.7H437.6
		c-9.1,0-16.4-8.4-16.4-18.7l0,0c0-10.3,7.3-18.7,16.4-18.7h284.3C730.9,586.6,738.2,594.9,738.2,605.2L738.2,605.2z"/>
</g>
</svg>
