<?xml version="1.0" encoding="utf-8"?>
<!-- Generator: Adobe Illustrator 18.1.1, SVG Export Plug-In . SVG Version: 6.00 Build 0)  -->
<svg version="1.1" id="Layer_1" xmlns="http://www.w3.org/2000/svg" xmlns:xlink="http://www.w3.org/1999/xlink" x="0px" y="0px"
	 viewBox="0 0 283.5 283.5" enable-background="new 0 0 283.5 283.5" xml:space="preserve">
<rect y="0.3" fill="#0099FF" width="282.7" height="282.8"/>
<path fill="#CCCC99" stroke="#000000" stroke-width="2" stroke-miterlimit="10" d="M136.6,283.1c-41.3-1.2-76.8-10.6-106.3-37.8
	c-26-23.6-35.4-57.9-26-88.6c7.1-23.6,21.3-39,39-50.8c41.3-28.3,86.2-33.1,132.3-21.3c2.4,0,3.5,1.2,5.9,1.2
	c10.6,3.5,14.2,0,11.8-13c-4.7-29.5,8.3-59.1,30.7-69.7c22.4-9.4,47.2,4.7,55.5,33.1c9.4,29.5-2.4,63.8-26,75.6
	c-14.2,7.1-14.2,7.1-4.7,22.4c20.1,29.5,20.1,63.8,0,93.3s-47.2,43.7-78,50.8C157.8,280.8,144.8,282,136.6,283.1z"/>
</svg>
